HIERARCHY
ROOT Hips
{
	OFFSET 0.000000 0.000000 0.000000 
	CHANNELS 6 Xposition Yposition Zposition Zrotation Yrotation Xrotation
	JOINT LeftUpLeg
	{
		OFFSET 1.363060 -1.794630 0.839290 
		CHANNELS 3 Zrotation Yrotation Xrotation
		JOINT LeftLeg
		{
			OFFSET 2.448110 -6.726130 0.000000 
			CHANNELS 3 Zrotation Yrotation Xrotation
			JOINT LeftFoot
			{
				OFFSET 2.562200 -7.039590 0.000000 
				CHANNELS 3 Zrotation Yrotation Xrotation
				JOINT LeftToeBase
				{
					OFFSET 0.157640 -0.433110 2.322550 
					CHANNELS 3 Zrotation Yrotation Xrotation
					End Site
					{
						OFFSET 0.000000 0.000000 0.000000 
					}
				}
			}
		}
	}
	JOINT RightUpLeg
	{
		OFFSET -1.305520 -1.794630 0.839290 
		CHANNELS 3 Zrotation Yrotation Xrotation
		JOINT RightLeg
		{
			OFFSET -2.542530 -6.985550 0.000000 
			CHANNELS 3 Zrotation Yrotation Xrotation
			JOINT RightFoot
			{
				OFFSET -2.568260 -7.056230 0.000000 
				CHANNELS 3 Zrotation Yrotation Xrotation
				JOINT RightToeBase
				{
					OFFSET -0.164730 -0.452590 2.363150 
					CHANNELS 3 Zrotation Yrotation Xrotation
					End Site
					{
						OFFSET 0.000000 0.000000 0.000000 
					}
				}
			}
		}
	}
	JOINT Spine
	{
		OFFSET 0.028270 2.035590 -0.193380 
		CHANNELS 3 Zrotation Yrotation Xrotation
		JOINT Spine1
		{
			OFFSET 0.056720 2.048850 -0.042750 
			CHANNELS 3 Zrotation Yrotation Xrotation
			JOINT Neck1
			{
				OFFSET -0.054170 1.746240 0.172020 
				CHANNELS 3 Zrotation Yrotation Xrotation
				JOINT Head
				{
					OFFSET 0.104070 1.761360 -0.123970 
					CHANNELS 3 Zrotation Yrotation Xrotation
					End Site
					{
						OFFSET 0.000000 0.000000 0.000000 
					}
				}
			}
			JOINT LeftArm
			{
				OFFSET 3.362410 1.200890 -0.311210 
				CHANNELS 3 Zrotation Yrotation Xrotation
				JOINT LeftForeArm
				{
					OFFSET 4.983000 -0.000000 -0.000000 
					CHANNELS 3 Zrotation Yrotation Xrotation
					JOINT LeftHand
					{
						OFFSET 3.483560 -0.000000 -0.000000 
						CHANNELS 3 Zrotation Yrotation Xrotation
						JOINT LeftHandIndex1
						{
							OFFSET 0.715260 -0.000000 -0.000000 
							CHANNELS 3 Zrotation Yrotation Xrotation
							End Site
							{
								OFFSET 0.000000 0.000000 0.000000 
							}
						}
					}
				}
			}
			JOINT RightArm
			{
				OFFSET -3.136600 1.374050 -0.404650 
				CHANNELS 3 Zrotation Yrotation Xrotation
				JOINT RightForeArm
				{
					OFFSET -5.241900 -0.000000 -0.000000 
					CHANNELS 3 Zrotation Yrotation Xrotation
					JOINT RightHand
					{
						OFFSET -3.444170 -0.000000 -0.000000 
						CHANNELS 3 Zrotation Yrotation Xrotation
						JOINT RightHandIndex1
						{
							OFFSET -0.622530 -0.000000 -0.000000 
							CHANNELS 3 Zrotation Yrotation Xrotation
							End Site
							{
								OFFSET 0.000000 0.000000 0.000000 
							}
						}
					}
				}
			}
		}
	}
}
MOTION
Frames: 18
Frame Time: 0.041667
-0.644232 18.261068 7.015917 -2.774915 -0.625951 4.431524 -13.208941 -7.940403 -2.434712 1.292507 7.834889 24.642713 0.048553 4.269176 -14.869629 8.953500 -16.777700 -55.929300 19.709853 -1.339305 10.332562 0.284589 0.729984 1.585769 -0.137393 -3.952091 -14.679037 -0.156100 2.545600 -7.016100 -3.222123 0.574312 -13.987572 1.529451 1.301912 -13.586210 2.488412 -3.571463 40.037371 0.435400 -1.036800 12.808000 -20.156820 11.294605 -52.397254 40.243316 -48.765191 -13.477083 0.096658 0.744037 -39.758970 -7.125000 0.000000 0.000000 24.434924 -27.689465 -49.389654 -58.839175 57.739258 -21.546014 3.018341 -0.073406 -26.768990 7.125000 0.000000 0.000000 
-0.639340 18.263416 6.998209 -2.763302 -0.622564 4.801238 -13.161554 -7.842344 -2.721236 1.282480 7.884368 24.644675 0.053605 4.202003 -14.695397 8.942000 -16.770200 -55.889300 19.795496 -1.344961 10.158400 0.285262 0.712800 1.581922 -0.131345 -3.983845 -14.648380 -0.159900 2.576400 -7.101600 -3.850507 0.476947 -16.643422 1.608006 1.281940 -13.242851 2.247149 -3.517051 40.281478 0.348300 -1.035800 12.763900 -20.953961 11.681389 -51.962644 40.198130 -48.706321 -13.540420 0.095557 0.736621 -39.720052 -7.125000 0.000000 0.000000 24.875198 -27.678410 -49.521715 -57.626581 57.220176 -20.834025 3.056416 -0.156798 -26.022668 7.125000 0.000000 0.000000 
-0.633568 18.263905 6.977957 -3.086061 -0.502631 4.325638 -13.017137 -7.770957 -2.733604 1.318018 7.819166 24.684198 0.057903 4.088479 -14.536603 8.945900 -16.772800 -55.903000 19.802235 -1.337740 10.127812 0.282424 0.730896 1.583088 -0.113652 -4.038213 -14.569479 -0.176200 2.703800 -7.455200 -1.461445 0.788156 -12.674733 1.187318 1.259155 -14.216706 1.482674 -3.112799 40.290083 0.224900 -0.976900 12.701200 -22.243996 11.637470 -52.822382 40.584462 -48.836117 -13.730424 0.147922 0.729978 -39.513152 -7.125000 0.000000 0.000000 25.016498 -26.764964 -50.471689 -56.627075 56.711343 -20.094068 3.095302 -0.202958 -25.275842 7.125000 0.000000 0.000000 
-0.626818 18.263905 6.953010 -3.017619 -0.498507 4.238250 -13.042045 -7.755583 -2.916972 1.331543 7.831800 24.743575 0.059768 4.066586 -14.508162 8.951700 -16.776500 -55.923000 19.737120 -1.300968 10.012947 0.282737 0.740827 1.584826 -0.092997 -4.116898 -14.493510 -0.194200 2.838000 -7.828000 -1.782053 0.715641 -11.571779 1.261706 1.263249 -14.734869 1.545883 -3.156885 40.408295 0.227200 -0.983700 12.700400 -23.234809 11.720239 -53.173292 40.842054 -48.913784 -13.924381 0.171735 0.719385 -39.446099 -7.125000 0.000000 0.000000 25.957008 -26.842647 -50.756470 -56.483440 56.438690 -20.016727 3.055267 -0.183719 -25.271469 7.125000 0.000000 0.000000 
-0.621241 18.260676 6.922584 -3.076679 -0.460936 4.115356 -12.963611 -7.732822 -3.079704 1.348300 7.851109 24.827141 0.065828 4.050447 -14.548145 8.947200 -16.773600 -55.907500 19.791562 -1.296139 9.929683 0.283039 0.749460 1.586514 -0.075313 -4.184289 -14.426581 -0.218400 3.008500 -8.302300 -1.717384 0.741082 -10.572067 1.108136 1.274734 -15.340826 1.767743 -3.285358 40.457418 0.259000 -1.006700 12.672500 -24.132237 11.711929 -53.487288 40.901753 -48.865017 -14.017616 0.184240 0.710199 -39.361433 -7.125000 0.000000 0.000000 27.598003 -27.587060 -50.816545 -57.798946 56.666375 -20.976062 2.956845 -0.096330 -26.087366 7.125000 0.000000 0.000000 
-0.616545 18.253535 6.889418 -3.199110 -0.458025 4.028197 -12.831880 -7.680760 -3.257402 1.364454 7.886471 24.930629 0.075943 4.044979 -14.654206 8.944500 -16.771800 -55.897900 19.937819 -1.276768 9.863176 0.284143 0.756043 1.588634 -0.072127 -4.212548 -14.443941 -0.235900 3.125600 -8.628700 -1.737021 0.742278 -10.045040 1.065481 1.265883 -15.849434 1.853355 -3.312863 40.369896 0.287800 -1.014100 12.574900 -25.093157 11.726610 -53.808139 40.887495 -48.799276 -14.038637 0.199916 0.702182 -39.215636 -7.125000 0.000000 0.000000 27.677778 -26.525793 -51.633880 -55.495052 55.741026 -19.504057 3.085907 -0.235148 -25.095265 7.125000 0.000000 0.000000 
-0.611067 18.245610 6.853807 -3.273670 -0.530302 3.946631 -12.783328 -7.675058 -3.444666 1.378953 7.921827 25.048353 0.079393 4.125260 -14.915357 8.926600 -16.760200 -55.835900 20.029475 -1.161031 9.758357 0.285198 0.762875 1.590517 -0.086877 -4.194702 -14.578820 -0.234000 3.113200 -8.594100 -1.686131 0.751251 -9.214045 1.017156 1.266605 -16.385839 2.026164 -3.322468 40.152048 0.344600 -0.999400 12.431100 -26.051513 11.721104 -54.255249 40.862374 -48.715345 -14.065519 0.223274 0.686257 -39.125919 -7.125000 0.000000 0.000000 28.352816 -25.930949 -52.177618 -54.590245 55.241656 -18.964361 3.121844 -0.296413 -24.806599 7.125000 0.000000 0.000000 
-0.607055 18.236805 6.816239 -3.374582 -0.648639 3.693528 -12.766700 -7.668120 -3.532905 1.398951 7.934284 25.168922 0.075785 4.250088 -15.233058 8.890500 -16.736700 -55.710700 20.075130 -0.988142 9.722888 0.286207 0.774544 1.592711 -0.103434 -4.186142 -14.753279 -0.244200 3.179700 -8.779500 -1.101987 0.845049 -7.293544 0.872496 1.297957 -17.181433 2.072154 -3.272758 39.741058 0.376300 -0.978900 12.238900 -27.066574 11.515694 -54.909077 40.923021 -48.669924 -14.138887 0.246126 0.677238 -39.000877 -7.125000 0.000000 0.000000 29.292521 -25.564218 -52.622837 -54.416812 54.978042 -18.873141 3.092077 -0.294871 -24.807161 7.125000 0.000000 0.000000 
-0.604120 18.225065 6.774856 -3.480965 -0.794099 3.342441 -12.757071 -7.640543 -3.549772 1.421234 7.931460 25.273218 0.075004 4.341692 -15.499665 8.863700 -16.719200 -55.617500 20.101365 -0.793228 9.741805 0.287579 0.788039 1.594944 -0.117876 -4.198168 -14.940103 -0.267000 3.324000 -9.182000 -0.310034 0.950856 -4.993038 0.699803 1.342211 -18.132586 1.985910 -3.158821 39.343345 0.381500 -0.947900 12.078200 -28.075366 11.246339 -55.530703 40.981666 -48.621106 -14.210035 0.263290 0.678297 -38.794697 -7.125000 0.000000 0.000000 30.191888 -25.167053 -53.053402 -54.263484 54.729779 -18.804579 3.064266 -0.287196 -24.798720 7.125000 0.000000 0.000000 
-0.600403 18.213521 6.729265 -3.504764 -0.964319 3.067512 -12.778966 -7.650116 -3.612556 1.435790 7.928434 25.342941 0.077485 4.408384 -15.725638 8.813600 -16.686200 -55.443200 20.100815 -0.573680 9.700102 0.289953 0.801425 1.597288 -0.128791 -4.241967 -15.141818 -0.304400 3.547400 -9.806600 0.019678 0.972951 -3.013102 0.659517 1.377778 -19.025991 1.966750 -3.042773 39.099859 0.400900 -0.899900 11.988500 -29.035085 11.170206 -55.888670 41.040581 -48.570939 -14.282567 0.279336 0.674501 -38.642171 -7.125000 0.000000 0.000000 31.088427 -24.704246 -53.394913 -54.074900 54.482081 -18.726572 3.037670 -0.282353 -24.808375 7.125000 0.000000 0.000000 
-0.596979 18.208629 6.683284 -3.388891 -1.206390 2.812150 -12.853298 -7.656299 -3.715198 1.444321 7.924755 25.384533 0.063799 4.509918 -15.857045 8.761300 -16.651600 -55.260900 20.032676 -0.298244 9.630159 0.293172 0.821704 1.601714 -0.121153 -4.349538 -15.262143 -0.359600 3.852400 -10.661700 -0.507639 0.910680 -0.839806 0.893233 1.422730 -19.888423 1.792790 -2.868667 38.583110 0.356700 -0.833000 11.798300 -29.973184 11.236010 -56.101410 41.225302 -48.583840 -14.427473 0.297340 0.678157 -38.448562 -7.125000 0.000000 0.000000 32.124320 -24.075477 -53.741779 -53.887938 54.205643 -18.651569 2.995475 -0.274502 -24.736118 7.125000 0.000000 0.000000 
-0.595707 18.210684 6.637889 -3.187479 -1.508913 2.589145 -12.952983 -7.602948 -3.901158 1.454062 7.923621 25.427268 0.027786 4.653007 -15.850785 8.763900 -16.653400 -55.270100 19.905056 0.045840 9.511627 0.294630 0.846415 1.606974 -0.103404 -4.433745 -15.245281 -0.369500 3.904600 -10.808500 -1.470847 0.881370 1.621803 1.242034 1.501428 -20.711038 1.685275 -2.741697 37.714670 0.320800 -0.782400 11.495100 -30.962298 11.244619 -56.248648 41.549472 -48.666399 -14.671897 0.315070 0.699563 -38.263026 -7.125000 0.000000 0.000000 33.388527 -23.406168 -54.220023 -53.887898 53.985384 -18.726604 2.940849 -0.250255 -24.668064 7.125000 0.000000 0.000000 
-0.595707 18.215967 6.592690 -3.012991 -1.785612 2.407578 -13.005241 -7.526187 -4.185267 1.469894 7.929269 25.494376 -0.008798 4.777580 -15.794306 8.782800 -16.665900 -55.336000 19.797679 0.391813 9.327980 0.295043 0.872110 1.611751 -0.074880 -4.522477 -15.127876 -0.351900 3.811100 -10.545900 -2.354128 0.922675 4.249682 1.494029 1.594934 -21.509361 1.908274 -2.767566 36.867067 0.371500 -0.770400 11.245600 -32.013448 11.190639 -56.252842 41.956148 -48.778548 -14.986279 0.334009 0.714836 -38.420222 -7.125000 0.000000 0.000000 34.821491 -22.939324 -54.644050 -54.127625 53.849716 -18.974284 2.877556 -0.209990 -24.777240 7.125000 0.000000 0.000000 
-0.594533 18.222815 6.546513 -2.925243 -1.986608 2.107938 -12.985720 -7.436766 -4.438456 1.498675 7.936389 25.600432 -0.034627 4.834960 -15.694886 8.789100 -16.670100 -55.357900 19.739165 0.660685 9.199850 0.296963 0.901649 1.617125 -0.030776 -4.696197 -14.996502 -0.363000 3.870100 -10.711500 -2.900447 0.992180 7.336121 1.604263 1.674983 -22.436309 2.061973 -2.800876 36.079861 0.399900 -0.772800 11.073000 -33.128978 11.109671 -56.194797 42.357370 -48.859576 -15.311019 0.355205 0.721643 -38.824456 -7.125000 0.000000 0.000000 36.334091 -22.603784 -54.858292 -54.507055 53.747057 -19.312029 2.807332 -0.173099 -25.021466 7.125000 0.000000 0.000000 
-0.592380 18.230446 6.497009 -2.986460 -2.108408 1.696416 -12.889368 -7.408006 -4.602018 1.539895 7.944392 25.752048 -0.055890 4.867679 -15.595158 8.776500 -16.661700 -55.313800 19.759603 0.854881 9.144341 0.299812 0.930039 1.621447 0.019602 -4.918081 -14.882612 -0.399500 4.057900 -11.239700 -2.734715 1.038496 10.627537 1.515138 1.723836 -23.446872 2.141049 -2.777021 35.282300 0.423200 -0.762600 10.923700 -34.336359 11.017062 -56.157821 42.665626 -48.872023 -15.592878 0.374441 0.733940 -39.087145 -7.125000 0.000000 0.000000 37.814597 -22.265203 -54.855443 -54.924742 53.660809 -19.679406 2.740863 -0.146318 -25.323249 7.125000 0.000000 0.000000 
-0.590032 18.237588 6.444277 -3.143535 -2.211350 1.318245 -12.745285 -7.478494 -4.727236 1.582782 7.967363 25.938821 -0.076288 4.938540 -15.600746 8.741400 -16.638400 -55.191400 19.861931 1.031068 9.098439 0.302682 0.952602 1.624088 0.070880 -5.143700 -14.759268 -0.433800 4.226600 -11.715000 -2.273589 1.047869 13.380564 1.329570 1.748629 -24.364984 2.400883 -2.747727 34.432544 0.507100 -0.731700 10.738100 -35.547689 10.915839 -56.045392 42.882025 -48.848010 -15.824316 0.389442 0.742777 -39.024749 -7.125000 0.000000 0.000000 39.227057 -21.993254 -54.583614 -55.310922 53.585994 -20.032284 2.683998 -0.129881 -25.600914 7.125000 0.000000 0.000000 
-0.588956 18.242479 6.390860 -3.401307 -2.292413 1.022297 -12.541170 -7.483410 -4.896722 1.628928 7.997841 26.141678 -0.091285 4.977945 -15.582342 8.718700 -16.623300 -55.112200 20.036495 1.204552 9.028592 0.305198 0.964871 1.623287 0.117801 -5.356954 -14.649601 -0.438900 4.251000 -11.784000 -1.317974 0.991666 15.417330 1.037245 1.746609 -25.137761 2.562962 -2.635872 33.455966 0.588500 -0.684600 10.463900 -36.795854 11.004903 -55.674619 43.135207 -48.870656 -16.082606 0.402189 0.746977 -38.777824 -7.125000 0.000000 0.000000 40.516417 -21.784250 -54.062302 -55.763976 53.572099 -20.420641 2.625887 -0.112734 -25.830585 7.125000 0.000000 0.000000 
-0.589935 18.245708 6.337052 -3.705465 -2.289664 0.798371 -12.300691 -7.458988 -5.154553 1.679680 8.022941 26.342117 -0.096319 4.937746 -15.472849 8.711300 -16.618300 -55.086400 20.229452 1.335008 8.882370 0.307261 0.971534 1.619829 0.161081 -5.556855 -14.549932 -0.435300 4.233600 -11.734800 0.039480 0.838947 17.301759 0.693852 1.723006 -25.801394 2.511306 -2.462671 32.403075 0.626200 -0.641000 10.172100 -38.126203 11.353990 -55.007251 43.511254 -48.958176 -16.422123 0.413571 0.755134 -38.572164 -7.125000 0.000000 0.000000 41.732407 -21.544326 -53.492779 -56.390914 53.642561 -20.934756 2.565529 -0.087865 -26.146985 7.125000 0.000000 0.000000 
